<svg width="20" height="20" viewBox="0 0 18 20" fill="none" xmlns="http://www.w3.org/2000/svg">
<path d="M3.19199 19.2887H14.6568C15.5357 19.2887 16.2177 19.0364 16.7027 18.5318C17.1877 18.0273 17.4303 17.2704 17.4303 16.2613V5.82187L15.858 7.39414V16.1832C15.858 16.691 15.7375 17.0735 15.4967 17.3307C15.2558 17.5878 14.9693 17.7164 14.6373 17.7164H3.22128C2.733 17.7164 2.35702 17.5878 2.09335 17.3307C1.82968 17.0735 1.69785 16.691 1.69785 16.1832V5.09922C1.69785 4.59141 1.82968 4.20729 2.09335 3.94687C2.35702 3.68646 2.733 3.55625 3.22128 3.55625H12.1178L13.6901 1.98398H3.19199C2.17636 1.98398 1.41139 2.23626 0.897064 2.74082C0.382741 3.24538 0.12558 4.00222 0.12558 5.01133V16.2613C0.12558 17.2704 0.382741 18.0273 0.897064 18.5318C1.41139 19.0364 2.17636 19.2887 3.19199 19.2887ZM6.74667 12.9605L8.65097 12.1305L17.7721 3.01914L16.4342 1.70078L7.32285 10.8121L6.44394 12.648C6.40488 12.7327 6.42278 12.8157 6.49765 12.8971C6.57252 12.9784 6.65553 12.9996 6.74667 12.9605ZM18.4947 2.30625L19.1979 1.58359C19.3606 1.40781 19.4436 1.21413 19.4469 1.00254C19.4501 0.790951 19.3671 0.603776 19.1979 0.441016L18.9733 0.206641C18.8235 0.0569011 18.6428 -0.0114584 18.4313 0.0015625C18.2197 0.0145833 18.0325 0.0992188 17.8697 0.255469L17.1568 0.958594L18.4947 2.30625Z" fill="rgb(138, 137, 140)"/>
</svg>
