<svg width="21" height="21" viewBox="0 0 21 21" fill="none" xmlns="http://www.w3.org/2000/svg">
<path d="M12.6042 20.7051C12.9558 20.7051 13.2585 20.5651 13.5124 20.2852C13.7663 20.0052 13.9844 19.6308 14.1667 19.1621L20.5631 2.45312C20.6478 2.22526 20.7145 2.01367 20.7633 1.81836C20.8122 1.62305 20.8366 1.44076 20.8366 1.27148C20.8366 0.952477 20.7455 0.701827 20.5631 0.519534C20.3809 0.33724 20.1302 0.246094 19.8112 0.246094C19.6485 0.246094 19.4678 0.270507 19.2692 0.319334C19.0707 0.36816 18.8575 0.434894 18.6296 0.519534L1.8327 6.95507C1.42255 7.11133 1.07749 7.31641 0.797547 7.57031C0.517599 7.82422 0.377625 8.12695 0.377625 8.47851C0.377625 8.92773 0.530619 9.25163 0.836608 9.45019C1.1426 9.64879 1.52997 9.81969 1.99871 9.96289L7.27215 11.5645C7.58465 11.6621 7.84182 11.6995 8.04364 11.6768C8.24546 11.654 8.4538 11.5449 8.66864 11.3496L19.3815 1.33984C19.4401 1.28125 19.5036 1.25358 19.5719 1.25683C19.6403 1.26009 19.7006 1.2845 19.7526 1.33007C19.8047 1.37565 19.8307 1.43424 19.8307 1.50586C19.8307 1.57748 19.8014 1.64258 19.7428 1.70117L9.77215 12.4531C9.58335 12.655 9.47593 12.8552 9.44989 13.0537C9.42385 13.2523 9.4564 13.5143 9.54754 13.8398L11.1003 18.9961C11.2435 19.4844 11.416 19.8913 11.6178 20.2168C11.8197 20.5423 12.1485 20.7051 12.6042 20.7051Z" fill="rgb(138, 137, 140)"/>
</svg>
