<svg width="21" height="20" viewBox="0 0 21 20" fill="none" xmlns="http://www.w3.org/2000/svg">
<path d="M10.7617 19.9219C12.1224 19.9219 13.4033 19.6615 14.6045 19.1406C15.8057 18.6198 16.8652 17.9004 17.7832 16.9824C18.7012 16.0645 19.4206 15.0049 19.9414 13.8037C20.4622 12.6026 20.7227 11.3216 20.7227 9.96094C20.7227 8.60026 20.4622 7.31933 19.9414 6.11816C19.4206 4.91699 18.7012 3.85742 17.7832 2.93945C16.8652 2.02148 15.804 1.30208 14.5996 0.78125C13.3952 0.260417 12.1126 0 10.752 0C9.39128 0 8.11035 0.260417 6.90918 0.78125C5.70801 1.30208 4.65006 2.02148 3.73535 2.93945C2.82064 3.85742 2.10286 4.91699 1.58203 6.11816C1.0612 7.31933 0.800781 8.60026 0.800781 9.96094C0.800781 11.3216 1.0612 12.6026 1.58203 13.8037C2.10286 15.0049 2.82226 16.0645 3.74023 16.9824C4.6582 17.9004 5.71777 18.6198 6.91894 19.1406C8.12011 19.6615 9.40104 19.9219 10.7617 19.9219ZM10.7617 18.2617C9.60938 18.2617 8.5319 18.0469 7.5293 17.6172C6.52669 17.1875 5.64616 16.5935 4.88769 15.835C4.12923 15.0765 3.53678 14.196 3.11035 13.1934C2.68392 12.1908 2.4707 11.1133 2.4707 9.96094C2.4707 8.80859 2.68392 7.73112 3.11035 6.72852C3.53678 5.72591 4.1276 4.84375 4.88281 4.08203C5.63802 3.32031 6.51692 2.72623 7.51953 2.2998C8.52214 1.87337 9.59961 1.66016 10.752 1.66016C11.9043 1.66016 12.9818 1.87337 13.9844 2.2998C14.987 2.72623 15.8691 3.32031 16.6309 4.08203C17.3926 4.84375 17.9883 5.72591 18.418 6.72852C18.8476 7.73112 19.0625 8.80859 19.0625 9.96094C19.0625 11.1133 18.8493 12.1908 18.4229 13.1934C17.9964 14.196 17.4039 15.0765 16.6455 15.835C15.887 16.5935 15.0048 17.1875 13.999 17.6172C12.9932 18.0469 11.9141 18.2617 10.7617 18.2617ZM10.752 11.7188C11.2402 11.7188 11.4876 11.4616 11.4942 10.9473L11.6406 5.79102C11.6471 5.54362 11.5641 5.33691 11.3916 5.1709C11.219 5.00489 11.0026 4.92188 10.7422 4.92188C10.4753 4.92188 10.2588 5.00326 10.0928 5.16602C9.92676 5.32878 9.847 5.53386 9.85351 5.78125L9.98047 10.9473C9.99349 11.4616 10.2507 11.7188 10.752 11.7188ZM10.752 14.8926C11.0319 14.8926 11.2777 14.7949 11.4893 14.5996C11.7009 14.4043 11.8067 14.1634 11.8067 13.877C11.8067 13.5905 11.7025 13.3496 11.4942 13.1543C11.2858 12.959 11.0384 12.8613 10.752 12.8613C10.4655 12.8613 10.2181 12.9606 10.0098 13.1592C9.80143 13.3577 9.69726 13.597 9.69726 13.877C9.69726 14.1569 9.80143 14.3962 10.0098 14.5947C10.2181 14.7933 10.4655 14.8926 10.752 14.8926Z" fill="rgb(138, 137, 140)"/>
</svg>
