<svg width="21" height="21" viewBox="0 0 21 21" fill="none" xmlns="http://www.w3.org/2000/svg">
<path d="M10.2445 20.7872C11.6052 20.7872 12.8861 20.5268 14.0873 20.0059C15.2885 19.4851 16.348 18.7657 17.266 17.8477C18.184 16.9298 18.9034 15.8702 19.4242 14.669C19.945 13.4679 20.2055 12.1869 20.2055 10.8262C20.2055 9.46556 19.945 8.18463 19.4242 6.98346C18.9034 5.78229 18.184 4.72272 17.266 3.80475C16.348 2.88678 15.2868 2.16738 14.0824 1.64655C12.878 1.12571 11.5954 0.865295 10.2347 0.865295C8.87407 0.865295 7.59314 1.12571 6.39197 1.64655C5.1908 2.16738 4.13285 2.88678 3.21814 3.80475C2.30343 4.72272 1.58565 5.78229 1.06482 6.98346C0.543986 8.18463 0.283569 9.46556 0.283569 10.8262C0.283569 12.1869 0.543986 13.4679 1.06482 14.669C1.58565 15.8702 2.30505 16.9298 3.22302 17.8477C4.14099 18.7657 5.20056 19.4851 6.40173 20.0059C7.6029 20.5268 8.88383 20.7872 10.2445 20.7872ZM10.2445 15.8555C9.54138 15.8555 8.92615 15.7286 8.3988 15.4747C7.87146 15.2208 7.45968 14.931 7.16345 14.6055C6.86723 14.28 6.71912 14.0066 6.71912 13.7852C6.71912 13.6615 6.76795 13.5769 6.8656 13.5313C6.96326 13.4858 7.06417 13.4858 7.16834 13.5313C7.53943 13.7266 7.96098 13.9187 8.43298 14.1075C8.90499 14.2963 9.50883 14.3907 10.2445 14.3907C10.9737 14.3907 11.5759 14.2979 12.0512 14.1124C12.5264 13.9269 12.9463 13.7332 13.3109 13.5313C13.4151 13.4858 13.516 13.4858 13.6137 13.5313C13.7113 13.5769 13.7602 13.6615 13.7602 13.7852C13.7602 14.0066 13.6137 14.28 13.3207 14.6055C13.0277 14.931 12.616 15.2208 12.0854 15.4747C11.5548 15.7286 10.9411 15.8555 10.2445 15.8555ZM7.25623 9.90827C6.94373 9.90827 6.66866 9.77969 6.43103 9.52253C6.1934 9.26536 6.07459 8.93496 6.07459 8.53132C6.07459 8.12116 6.19178 7.78587 6.42615 7.52546C6.66052 7.26504 6.93722 7.13483 7.25623 7.13483C7.58175 7.13483 7.86495 7.26504 8.10584 7.52546C8.34672 7.78587 8.46716 8.12116 8.46716 8.53132C8.46716 8.93496 8.34509 9.26536 8.10095 9.52253C7.85681 9.77969 7.57524 9.90827 7.25623 9.90827ZM13.2231 9.90827C12.9105 9.90827 12.6338 9.77969 12.393 9.52253C12.152 9.26536 12.0316 8.93496 12.0316 8.53132C12.0316 8.12116 12.1504 7.78587 12.3881 7.52546C12.6257 7.26504 12.904 7.13483 13.2231 7.13483C13.5485 7.13483 13.8317 7.26504 14.0727 7.52546C14.3135 7.78587 14.434 8.12116 14.434 8.53132C14.434 8.93496 14.3119 9.26536 14.0678 9.52253C13.8236 9.77969 13.5421 9.90827 13.2231 9.90827Z" fill="rgb(138, 137, 140)"/>
</svg>
