<svg width="25" height="17" viewBox="0 0 25 17" fill="none" xmlns="http://www.w3.org/2000/svg">
<path d="M3.82275 16.8672H14.0279C15.2193 16.8672 16.1519 16.5368 16.8257 15.876C17.4995 15.2152 17.8365 14.2891 17.8365 13.0977V4.57227C17.8365 3.38737 17.4995 2.46452 16.8257 1.80371C16.1519 1.1429 15.2193 0.8125 14.0279 0.8125H3.82275C2.68343 0.8125 1.76383 1.1429 1.06396 1.80371C0.364094 2.46452 0.0141602 3.38737 0.0141602 4.57227V13.0977C0.0141602 14.2891 0.351074 15.2152 1.0249 15.876C1.69873 16.5368 2.63134 16.8672 3.82275 16.8672ZM4.09619 15.3926C3.29541 15.3926 2.67692 15.1843 2.24072 14.7676C1.80453 14.3509 1.58643 13.7194 1.58643 12.873V4.80664C1.58643 3.96029 1.80453 3.32715 2.24072 2.90723C2.67692 2.4873 3.29541 2.27734 4.09619 2.27734H13.7544C14.5552 2.27734 15.1737 2.4873 15.6099 2.90723C16.0461 3.32715 16.2642 3.96029 16.2642 4.80664V12.873C16.2642 13.7194 16.0461 14.3509 15.6099 14.7676C15.1737 15.1843 14.5552 15.3926 13.7544 15.3926H4.09619ZM17.6119 6.10547V7.96094L22.2603 4.12305C22.3059 4.0905 22.3466 4.06283 22.3824 4.04004C22.4182 4.01725 22.4556 4.00586 22.4947 4.00586C22.6053 4.00586 22.6607 4.08398 22.6607 4.24023V13.4395C22.6607 13.5892 22.6053 13.6641 22.4947 13.6641C22.4556 13.6641 22.4182 13.6527 22.3824 13.6299C22.3466 13.6071 22.3059 13.5827 22.2603 13.5566L17.6119 9.71875V11.5645L21.5279 14.8848C21.7231 15.0475 21.9249 15.1794 22.1333 15.2803C22.3416 15.3812 22.5467 15.4316 22.7486 15.4316C23.1782 15.4316 23.5233 15.2884 23.7837 15.002C24.0441 14.7155 24.1744 14.3444 24.1744 13.8887V3.79102C24.1744 3.33529 24.0441 2.96419 23.7837 2.67773C23.5233 2.39128 23.1782 2.24805 22.7486 2.24805C22.5467 2.24805 22.3416 2.2985 22.1333 2.39941C21.9249 2.50032 21.7231 2.63216 21.5279 2.79492L17.6119 6.10547Z" fill="rgb(138, 137, 140)"/>
</svg>
